<?xml version="1.0" standalone="no"?>
<!DOCTYPE svg PUBLIC "-//W3C//DTD SVG 1.1//EN"
  "http://www.w3.org/Graphics/SVG/1.1/DTD/svg11.dtd">
<!-- Created with matplotlib (http://matplotlib.sourceforge.net/) -->
<svg width="511pt" height="391pt" viewBox="0 0 511 391"
   xmlns="http://www.w3.org/2000/svg"
   xmlns:xlink="http://www.w3.org/1999/xlink"
   version="1.1"
   id="svg1">
<filter id="colorAdd"><feComposite in="SourceGraphic" in2="BackgroundImage" operator="arithmetic" k2="1" k3="1"/></filter>
<g id="figure1">
<g id="patch1">
<path style="fill: #ffffff; stroke: #ffffff; stroke-width: 1.000000; stroke-linejoin: round; stroke-linecap: square;  opacity: 1.000000"  d="M0.000000 391.840625L511.742187 391.840625L511.742187 0.000000
L0.000000 0.000000z"/>
</g>
<g id="axes1">
<g id="patch2">
<path style="fill: #ffffff; opacity: 1.000000"  d="M46.050000 356.400000L492.450000 356.400000L492.450000 10.800000
L46.050000 10.800000z"/>
</g>
<g id="line2d1">
<defs>
  <clipPath id="p02677d881125d9b767acc670dcdddcc4">
<rect x="46.050000" y="10.800000" width="446.400000" height="345.600000"/>
  </clipPath>
</defs><path style="fill: none; stroke: #0000ff; stroke-width: 1.000000; stroke-linejoin: round; stroke-linecap: square;  opacity: 1.000000" clip-path="url(#p02677d881125d9b767acc670dcdddcc4)" d="M52.082432 -10.055128M52.600009 -1.000000L58.114865 95.483835
L64.147297 141.867827L70.179730 169.287321L76.212162 187.832950
L82.244595 201.392700L88.277027 211.824131L94.309459 220.140977
L100.341892 226.949331L106.374324 232.636596L112.406757 237.463374
L118.439189 241.612191L124.471622 245.215144L130.504054 248.370444
L136.536486 251.152789L142.568919 253.620087L148.601351 255.817982
L154.633784 257.782959L160.666216 259.544545L166.698649 261.126887
L172.731081 262.549919L178.763514 263.830222L184.795946 264.981682
L190.828378 266.015989L196.860811 266.943029L202.893243 267.771186
L208.925676 268.507580L214.958108 269.158264L220.990541 269.728367
L227.022973 270.222227L233.055405 270.643478L239.087838 270.995137
L245.120270 271.279663L251.152703 271.499005L257.185135 271.654644
L263.217568 271.747618L269.250000 271.778541L275.282432 271.747618
L281.314865 271.654644L287.347297 271.499005L293.379730 271.279663
L299.412162 270.995137L305.444595 270.643478L311.477027 270.222227
L317.509459 269.728367L323.541892 269.158264L329.574324 268.507580
L335.606757 267.771186L341.639189 266.943029L347.671622 266.015989
L353.704054 264.981682L359.736486 263.830222L365.768919 262.549919
L371.801351 261.126887L377.833784 259.544545L383.866216 257.782959
L389.898649 255.817982L395.931081 253.620087L401.963514 251.152789
L407.995946 248.370444L414.028378 245.215144L420.060811 241.612191
L426.093243 237.463374L432.125676 232.636596L438.158108 226.949331
L444.190541 220.140977L450.222973 211.824131L456.255405 201.392700
L462.287838 187.832950L468.320270 169.287321L474.352703 141.867827
L480.385135 95.483835L485.899991 -1.000000"/>
</g>
<g id="line2d2">
<path style="fill: none; stroke: #008000; stroke-width: 1.000000; stroke-linejoin: round; stroke-linecap: square;  opacity: 1.000000" clip-path="url(#p02677d881125d9b767acc670dcdddcc4)" d="M46.050000 356.400000L52.082432 356.399978L58.114865 356.399645
L64.147297 356.398205L70.179730 356.394326L76.212162 356.386148
L82.244595 356.371276L88.277027 356.346785L94.309459 356.309217
L100.341892 356.254584L106.374324 356.178362L112.406757 356.075500
L118.439189 355.940412L124.471622 355.766981L130.504054 355.548557
L136.536486 355.277959L142.568919 354.947476L148.601351 354.548860
L154.633784 354.073337L160.666216 353.511596L166.698649 352.853798
L172.731081 352.089569L178.763514 351.208005L184.795946 350.197670
L190.828378 349.046595L196.860811 347.742280L202.893243 346.271692
L208.925676 344.621267L214.958108 342.776910L220.990541 340.723991
L227.022973 338.447351L233.055405 335.931299L239.087838 333.159609
L245.120270 330.115527L251.152703 326.781765L257.185135 323.140502
L263.217568 319.173388L269.250000 314.861538L275.282432 310.185538
L281.314865 305.125440L287.347297 299.660765L293.379730 293.770501
L299.412162 287.433105L305.444595 280.626503L311.477027 273.328086
L317.509459 265.514716L323.541892 257.162723L329.574324 248.247903
L335.606757 238.745522L341.639189 228.630313L347.671622 217.876477
L353.704054 206.457684L359.736486 194.347071L365.768919 181.517244
L371.801351 167.940276L377.833784 153.587710L383.866216 138.430555
L389.898649 122.439288L395.931081 105.583857L401.963514 87.833674
L407.995946 69.157622L414.028378 49.524052L420.060811 28.900781
L426.093243 7.255095L428.286871 -1.000000"/>
</g>
<g id="line2d3">
<path style="fill: none; stroke: #ff0000; stroke-width: 1.000000; stroke-linejoin: round; stroke-linecap: square;  opacity: 1.000000" clip-path="url(#p02677d881125d9b767acc670dcdddcc4)" d="M46.050000 -42.369231M69.841432 -1.000000L70.179730 -0.424184
L76.212162 9.697972L82.244595 19.674484L88.277027 29.505355
L94.309459 39.190583L100.341892 48.730168L106.374324 58.124111
L112.406757 67.372411L118.439189 76.475069L124.471622 85.432084
L130.504054 94.243457L136.536486 102.909187L142.568919 111.429275
L148.601351 119.803720L154.633784 128.032522L160.666216 136.115682
L166.698649 144.053200L172.731081 151.845075L178.763514 159.491308
L184.795946 166.991898L190.828378 174.346845L196.860811 181.556150
L202.893243 188.619812L208.925676 195.537832L214.958108 202.310210
L220.990541 208.936944L227.022973 215.418037L233.055405 221.753487
L239.087838 227.943294L245.120270 233.987459L251.152703 239.885981
L257.185135 245.638860L263.217568 251.246098L269.250000 256.707692
L275.282432 262.023644L281.314865 267.193954L287.347297 272.218621
L293.379730 277.097646L299.412162 281.831028L305.444595 286.418767
L311.477027 290.860864L317.509459 295.157319L323.541892 299.308131
L329.574324 303.313300L335.606757 307.172827L341.639189 310.886711
L347.671622 314.454953L353.704054 317.877552L359.736486 321.154509
L365.768919 324.285823L371.801351 327.271495L377.833784 330.111524
L383.866216 332.805911L389.898649 335.354655L395.931081 337.757757
L401.963514 340.015216L407.995946 342.127033L414.028378 344.093207
L420.060811 345.913738L426.093243 347.588627L432.125676 349.117874
L438.158108 350.501478L444.190541 351.739439L450.222973 352.831758
L456.255405 353.778435L462.287838 354.579468L468.320270 355.234860
L474.352703 355.744609L480.385135 356.108715L486.417568 356.327179
L492.450000 356.400000"/>
</g>
<g id="line2d4">
<path style="fill: none; stroke: #00bfbf; stroke-width: 1.000000; stroke-linejoin: round; stroke-linecap: square;  opacity: 1.000000" clip-path="url(#p02677d881125d9b767acc670dcdddcc4)" d="M46.050000 356.400000L52.082432 345.768096L58.114865 335.427477
L64.147297 325.378142L70.179730 315.620093L76.212162 306.153329
L82.244595 296.977850L88.277027 288.093656L94.309459 279.500747
L100.341892 271.199123L106.374324 263.188785L112.406757 255.469731
L118.439189 248.041962L124.471622 240.905478L130.504054 234.060280
L136.536486 227.506366L142.568919 221.243738L148.601351 215.272394
L154.633784 209.592336L160.666216 204.203562L166.698649 199.106074
L172.731081 194.299871L178.763514 189.784953L184.795946 185.561319
L190.828378 181.628971L196.860811 177.987908L202.893243 174.638130
L208.925676 171.579637L214.958108 168.812429L220.990541 166.336506
L227.022973 164.151868L233.055405 162.258515L239.087838 160.656448
L245.120270 159.345665L251.152703 158.326167L257.185135 157.597955
L263.217568 157.161027L269.250000 157.015385L275.282432 157.161027
L281.314865 157.597955L287.347297 158.326167L293.379730 159.345665
L299.412162 160.656448L305.444595 162.258515L311.477027 164.151868
L317.509459 166.336506L323.541892 168.812429L329.574324 171.579637
L335.606757 174.638130L341.639189 177.987908L347.671622 181.628971
L353.704054 185.561319L359.736486 189.784953L365.768919 194.299871
L371.801351 199.106074L377.833784 204.203562L383.866216 209.592336
L389.898649 215.272394L395.931081 221.243738L401.963514 227.506366
L407.995946 234.060280L414.028378 240.905478L420.060811 248.041962
L426.093243 255.469731L432.125676 263.188785L438.158108 271.199123
L444.190541 279.500747L450.222973 288.093656L456.255405 296.977850
L462.287838 306.153329L468.320270 315.620093L474.352703 325.378142
L480.385135 335.427477L486.417568 345.768096L492.450000 356.400000"/>
</g>
<g id="line2d5">
<path style="fill: none; stroke: #bf00bf; stroke-width: 1.000000; stroke-linejoin: round; stroke-linecap: square;  opacity: 1.000000" clip-path="url(#p02677d881125d9b767acc670dcdddcc4)" d="M46.050000 356.400000L52.082432 305.366602L58.114865 259.812033
L64.147297 219.400907L70.179730 183.810173L76.212162 152.728900
L82.244595 125.858060L88.277027 102.910314L94.309459 83.609796
L100.341892 67.691894L106.374324 54.903040L112.406757 45.000490
L118.439189 37.752111L124.471622 32.936163L130.504054 30.341085
L136.536486 29.765279L142.568919 31.016895L148.601351 33.913614
L154.633784 38.282431L160.666216 43.959445L166.698649 50.789637
L172.731081 58.626658L178.763514 67.332613L184.795946 76.777842
L190.828378 86.840712L196.860811 97.407391L202.893243 108.371641
L208.925676 119.634599L214.958108 131.104561L220.990541 142.696766
L227.022973 154.333182L233.055405 165.942290L239.087838 177.458867
L245.120270 188.823773L251.152703 199.983730L257.185135 210.891114
L263.217568 221.503734L269.250000 231.784615L275.282432 241.701790
L281.314865 251.228074L287.347297 260.340858L293.379730 269.021888
L299.412162 277.257048L305.444595 285.036150L311.477027 292.352713
L317.509459 299.203751L323.541892 305.589555L329.574324 311.513478
L335.606757 316.981720L341.639189 322.003112L347.671622 326.588899
L353.704054 330.752528L359.736486 334.509428L365.768919 337.876797
L371.801351 340.873385L377.833784 343.519280L383.866216 345.835691
L389.898649 347.844733L395.931081 349.569209L401.963514 351.032401
L407.995946 352.257844L414.028378 353.269121L420.060811 354.089640
L426.093243 354.742421L432.125676 355.249880L438.158108 355.633616
L444.190541 355.914189L450.222973 356.110912L456.255405 356.241629
L462.287838 356.322502L468.320270 356.367797L474.352703 356.389665
L480.385135 356.397930L486.417568 356.399869L492.450000 356.400000"/>
</g>
<g id="matplotlib.axis1">
<g id="xtick1">
<g id="line2d6">
<path style="fill: none; stroke: #000000; stroke-width: 0.500000; stroke-linejoin: round; stroke-linecap: butt; stroke-dasharray: 1.000000,3.000000; stroke-dashoffset: 0.000000; opacity: 1.000000" clip-path="url(#p02677d881125d9b767acc670dcdddcc4)" d="M46.050000 356.400000L46.050000 10.800000"/>
</g>
<g id="line2d7">
<defs><path id="m30e32995789d870ad79a2e54c91cf9c6" d="M0.000000 0.000000L0.000000 -4.000000"/></defs>
<g ><use style="fill: none; stroke: #000000; stroke-width: 0.500000; stroke-linejoin: round; stroke-linecap: butt;  opacity: 1.000000" xlink:href="#m30e32995789d870ad79a2e54c91cf9c6" x="46.050000" y="356.400000"/>
</g></g>
<g id="line2d8">
<defs><path id="m9281cae24120827b11d5ea8a7ad3e96b" d="M0.000000 0.000000L0.000000 4.000000"/></defs>
<g ><use style="fill: none; stroke: #000000; stroke-width: 0.500000; stroke-linejoin: round; stroke-linecap: butt;  opacity: 1.000000" xlink:href="#m9281cae24120827b11d5ea8a7ad3e96b" x="46.050000" y="10.800000"/>
</g></g>
<g id="text1">
<defs>
<path id="c_7a2040fe3b94fcd41d0a72c84e93b115" d="M31.781250 -66.406250q-7.609375 0.000000 -11.453125 7.500000q-3.828125 7.484375 -3.828125 22.531250q0.000000 14.984375 3.828125 22.484375q3.843750 7.500000 11.453125 7.500000q7.671875 0.000000 11.500000 -7.500000q3.843750 -7.500000 3.843750 -22.484375q0.000000 -15.046875 -3.843750 -22.531250q-3.828125 -7.500000 -11.500000 -7.500000M31.781250 -74.218750q12.265625 0.000000 18.734375 9.703125q6.468750 9.687500 6.468750 28.140625q0.000000 18.406250 -6.468750 28.109375q-6.468750 9.687500 -18.734375 9.687500q-12.250000 0.000000 -18.718750 -9.687500q-6.468750 -9.703125 -6.468750 -28.109375q0.000000 -18.453125 6.468750 -28.140625q6.468750 -9.703125 18.718750 -9.703125"/>
<path id="c_ed3e21196fb739f392806f09ca0594ef" d="M10.687500 -12.406250l10.312500 0.000000l0.000000 12.406250l-10.312500 0.000000z"/>
</defs>
<g style="fill: #000000; opacity: 1.000000" transform="translate(37.300000,369.306250)scale(0.120000)">
<use xlink:href="#c_7a2040fe3b94fcd41d0a72c84e93b115"/>
<use xlink:href="#c_ed3e21196fb739f392806f09ca0594ef" x="63.623047"/>
<use xlink:href="#c_7a2040fe3b94fcd41d0a72c84e93b115" x="95.410156"/>
</g>
</g>
</g>
<g id="xtick2">
<g id="line2d9">
<path style="fill: none; stroke: #000000; stroke-width: 0.500000; stroke-linejoin: round; stroke-linecap: butt; stroke-dasharray: 1.000000,3.000000; stroke-dashoffset: 0.000000; opacity: 1.000000" clip-path="url(#p02677d881125d9b767acc670dcdddcc4)" d="M135.330000 356.400000L135.330000 10.800000"/>
</g>
<g id="line2d10">
<g ><use style="fill: none; stroke: #000000; stroke-width: 0.500000; stroke-linejoin: round; stroke-linecap: butt;  opacity: 1.000000" xlink:href="#m30e32995789d870ad79a2e54c91cf9c6" x="135.330000" y="356.400000"/>
</g></g>
<g id="line2d11">
<g ><use style="fill: none; stroke: #000000; stroke-width: 0.500000; stroke-linejoin: round; stroke-linecap: butt;  opacity: 1.000000" xlink:href="#m9281cae24120827b11d5ea8a7ad3e96b" x="135.330000" y="10.800000"/>
</g></g>
<g id="text2">
<defs>
<path id="c_ed3f3ed3ebfbd18bcb9c012009a68ad1" d="M19.187500 -8.296875l34.421875 0.000000l0.000000 8.296875l-46.281250 0.000000l0.000000 -8.296875q5.609375 -5.812500 15.296875 -15.593750q9.703125 -9.796875 12.187500 -12.640625q4.734375 -5.312500 6.609375 -9.000000q1.890625 -3.687500 1.890625 -7.250000q0.000000 -5.812500 -4.078125 -9.468750q-4.078125 -3.671875 -10.625000 -3.671875q-4.640625 0.000000 -9.796875 1.609375q-5.140625 1.609375 -11.000000 4.890625l0.000000 -9.968750q5.953125 -2.390625 11.125000 -3.609375q5.187500 -1.218750 9.484375 -1.218750q11.328125 0.000000 18.062500 5.671875q6.734375 5.656250 6.734375 15.125000q0.000000 4.500000 -1.687500 8.531250q-1.671875 4.015625 -6.125000 9.484375q-1.218750 1.421875 -7.765625 8.187500q-6.531250 6.765625 -18.453125 18.921875"/>
</defs>
<g style="fill: #000000; opacity: 1.000000" transform="translate(126.783125,369.306250)scale(0.120000)">
<use xlink:href="#c_7a2040fe3b94fcd41d0a72c84e93b115"/>
<use xlink:href="#c_ed3e21196fb739f392806f09ca0594ef" x="63.623047"/>
<use xlink:href="#c_ed3f3ed3ebfbd18bcb9c012009a68ad1" x="95.410156"/>
</g>
</g>
</g>
<g id="xtick3">
<g id="line2d12">
<path style="fill: none; stroke: #000000; stroke-width: 0.500000; stroke-linejoin: round; stroke-linecap: butt; stroke-dasharray: 1.000000,3.000000; stroke-dashoffset: 0.000000; opacity: 1.000000" clip-path="url(#p02677d881125d9b767acc670dcdddcc4)" d="M224.610000 356.400000L224.610000 10.800000"/>
</g>
<g id="line2d13">
<g ><use style="fill: none; stroke: #000000; stroke-width: 0.500000; stroke-linejoin: round; stroke-linecap: butt;  opacity: 1.000000" xlink:href="#m30e32995789d870ad79a2e54c91cf9c6" x="224.610000" y="356.400000"/>
</g></g>
<g id="line2d14">
<g ><use style="fill: none; stroke: #000000; stroke-width: 0.500000; stroke-linejoin: round; stroke-linecap: butt;  opacity: 1.000000" xlink:href="#m9281cae24120827b11d5ea8a7ad3e96b" x="224.610000" y="10.800000"/>
</g></g>
<g id="text3">
<defs>
<path id="c_a0416418d96557a09b8c1332d34883ba" d="M37.796875 -64.312500l-24.906250 38.921875l24.906250 0.000000zM35.203125 -72.906250l12.406250 0.000000l0.000000 47.515625l10.406250 0.000000l0.000000 8.203125l-10.406250 0.000000l0.000000 17.187500l-9.812500 0.000000l0.000000 -17.187500l-32.906250 0.000000l0.000000 -9.515625z"/>
</defs>
<g style="fill: #000000; opacity: 1.000000" transform="translate(215.797500,369.306250)scale(0.120000)">
<use xlink:href="#c_7a2040fe3b94fcd41d0a72c84e93b115"/>
<use xlink:href="#c_ed3e21196fb739f392806f09ca0594ef" x="63.623047"/>
<use xlink:href="#c_a0416418d96557a09b8c1332d34883ba" x="95.410156"/>
</g>
</g>
</g>
<g id="xtick4">
<g id="line2d15">
<path style="fill: none; stroke: #000000; stroke-width: 0.500000; stroke-linejoin: round; stroke-linecap: butt; stroke-dasharray: 1.000000,3.000000; stroke-dashoffset: 0.000000; opacity: 1.000000" clip-path="url(#p02677d881125d9b767acc670dcdddcc4)" d="M313.890000 356.400000L313.890000 10.800000"/>
</g>
<g id="line2d16">
<g ><use style="fill: none; stroke: #000000; stroke-width: 0.500000; stroke-linejoin: round; stroke-linecap: butt;  opacity: 1.000000" xlink:href="#m30e32995789d870ad79a2e54c91cf9c6" x="313.890000" y="356.400000"/>
</g></g>
<g id="line2d17">
<g ><use style="fill: none; stroke: #000000; stroke-width: 0.500000; stroke-linejoin: round; stroke-linecap: butt;  opacity: 1.000000" xlink:href="#m9281cae24120827b11d5ea8a7ad3e96b" x="313.890000" y="10.800000"/>
</g></g>
<g id="text4">
<defs>
<path id="c_cc8d6d580d1b10c8632f7a42cd53db8a" d="M33.015625 -40.375000q-6.640625 0.000000 -10.531250 4.546875q-3.875000 4.531250 -3.875000 12.437500q0.000000 7.859375 3.875000 12.437500q3.890625 4.562500 10.531250 4.562500q6.640625 0.000000 10.515625 -4.562500q3.875000 -4.578125 3.875000 -12.437500q0.000000 -7.906250 -3.875000 -12.437500q-3.875000 -4.546875 -10.515625 -4.546875M52.593750 -71.296875l0.000000 8.984375q-3.718750 -1.750000 -7.500000 -2.671875q-3.781250 -0.937500 -7.500000 -0.937500q-9.765625 0.000000 -14.921875 6.593750q-5.140625 6.593750 -5.875000 19.921875q2.875000 -4.250000 7.218750 -6.515625q4.359375 -2.265625 9.578125 -2.265625q10.984375 0.000000 17.359375 6.671875q6.375000 6.656250 6.375000 18.125000q0.000000 11.234375 -6.640625 18.031250q-6.640625 6.781250 -17.671875 6.781250q-12.656250 0.000000 -19.343750 -9.687500q-6.687500 -9.703125 -6.687500 -28.109375q0.000000 -17.281250 8.203125 -27.562500q8.203125 -10.281250 22.015625 -10.281250q3.718750 0.000000 7.500000 0.734375q3.781250 0.734375 7.890625 2.187500"/>
</defs>
<g style="fill: #000000; opacity: 1.000000" transform="translate(305.124375,369.306250)scale(0.120000)">
<use xlink:href="#c_7a2040fe3b94fcd41d0a72c84e93b115"/>
<use xlink:href="#c_ed3e21196fb739f392806f09ca0594ef" x="63.623047"/>
<use xlink:href="#c_cc8d6d580d1b10c8632f7a42cd53db8a" x="95.410156"/>
</g>
</g>
</g>
<g id="xtick5">
<g id="line2d18">
<path style="fill: none; stroke: #000000; stroke-width: 0.500000; stroke-linejoin: round; stroke-linecap: butt; stroke-dasharray: 1.000000,3.000000; stroke-dashoffset: 0.000000; opacity: 1.000000" clip-path="url(#p02677d881125d9b767acc670dcdddcc4)" d="M403.170000 356.400000L403.170000 10.800000"/>
</g>
<g id="line2d19">
<g ><use style="fill: none; stroke: #000000; stroke-width: 0.500000; stroke-linejoin: round; stroke-linecap: butt;  opacity: 1.000000" xlink:href="#m30e32995789d870ad79a2e54c91cf9c6" x="403.170000" y="356.400000"/>
</g></g>
<g id="line2d20">
<g ><use style="fill: none; stroke: #000000; stroke-width: 0.500000; stroke-linejoin: round; stroke-linecap: butt;  opacity: 1.000000" xlink:href="#m9281cae24120827b11d5ea8a7ad3e96b" x="403.170000" y="10.800000"/>
</g></g>
<g id="text5">
<defs>
<path id="c_bef35738d52871942e50b9de9b122bab" d="M31.781250 -34.625000q-7.031250 0.000000 -11.062500 3.765625q-4.015625 3.765625 -4.015625 10.343750q0.000000 6.593750 4.015625 10.359375q4.031250 3.765625 11.062500 3.765625q7.031250 0.000000 11.078125 -3.781250q4.062500 -3.796875 4.062500 -10.343750q0.000000 -6.578125 -4.031250 -10.343750q-4.015625 -3.765625 -11.109375 -3.765625M21.921875 -38.812500q-6.343750 -1.562500 -9.890625 -5.906250q-3.531250 -4.359375 -3.531250 -10.609375q0.000000 -8.734375 6.218750 -13.812500q6.234375 -5.078125 17.062500 -5.078125q10.890625 0.000000 17.093750 5.078125q6.203125 5.078125 6.203125 13.812500q0.000000 6.250000 -3.546875 10.609375q-3.531250 4.343750 -9.828125 5.906250q7.125000 1.656250 11.093750 6.500000q3.984375 4.828125 3.984375 11.796875q0.000000 10.609375 -6.468750 16.281250q-6.468750 5.656250 -18.531250 5.656250q-12.046875 0.000000 -18.531250 -5.656250q-6.468750 -5.671875 -6.468750 -16.281250q0.000000 -6.968750 4.000000 -11.796875q4.015625 -4.843750 11.140625 -6.500000M18.312500 -54.390625q0.000000 5.656250 3.531250 8.828125q3.546875 3.171875 9.937500 3.171875q6.359375 0.000000 9.937500 -3.171875q3.593750 -3.171875 3.593750 -8.828125q0.000000 -5.671875 -3.593750 -8.843750q-3.578125 -3.171875 -9.937500 -3.171875q-6.390625 0.000000 -9.937500 3.171875q-3.531250 3.171875 -3.531250 8.843750"/>
</defs>
<g style="fill: #000000; opacity: 1.000000" transform="translate(394.435625,369.306250)scale(0.120000)">
<use xlink:href="#c_7a2040fe3b94fcd41d0a72c84e93b115"/>
<use xlink:href="#c_ed3e21196fb739f392806f09ca0594ef" x="63.623047"/>
<use xlink:href="#c_bef35738d52871942e50b9de9b122bab" x="95.410156"/>
</g>
</g>
</g>
<g id="xtick6">
<g id="line2d21">
<path style="fill: none; stroke: #000000; stroke-width: 0.500000; stroke-linejoin: round; stroke-linecap: butt; stroke-dasharray: 1.000000,3.000000; stroke-dashoffset: 0.000000; opacity: 1.000000" clip-path="url(#p02677d881125d9b767acc670dcdddcc4)" d="M492.450000 356.400000L492.450000 10.800000"/>
</g>
<g id="line2d22">
<g ><use style="fill: none; stroke: #000000; stroke-width: 0.500000; stroke-linejoin: round; stroke-linecap: butt;  opacity: 1.000000" xlink:href="#m30e32995789d870ad79a2e54c91cf9c6" x="492.450000" y="356.400000"/>
</g></g>
<g id="line2d23">
<g ><use style="fill: none; stroke: #000000; stroke-width: 0.500000; stroke-linejoin: round; stroke-linecap: butt;  opacity: 1.000000" xlink:href="#m9281cae24120827b11d5ea8a7ad3e96b" x="492.450000" y="10.800000"/>
</g></g>
<g id="text6">
<defs>
<path id="c_42baa63129a918535c52adb20d687ea7" d="M12.406250 -8.296875l16.109375 0.000000l0.000000 -55.625000l-17.531250 3.515625l0.000000 -8.984375l17.437500 -3.515625l9.859375 0.000000l0.000000 64.609375l16.109375 0.000000l0.000000 8.296875l-41.984375 0.000000z"/>
</defs>
<g style="fill: #000000; opacity: 1.000000" transform="translate(483.957812,369.306250)scale(0.120000)">
<use xlink:href="#c_42baa63129a918535c52adb20d687ea7"/>
<use xlink:href="#c_ed3e21196fb739f392806f09ca0594ef" x="63.623047"/>
<use xlink:href="#c_7a2040fe3b94fcd41d0a72c84e93b115" x="95.410156"/>
</g>
</g>
</g>
<g id="xtick7">
<g id="line2d24">
<defs><path id="m3b2d125790092c17af877e29e2858cbc" d="M0.000000 0.000000L0.000000 -2.000000"/></defs>
<g ><use style="fill: none; stroke: #000000; stroke-width: 0.500000; stroke-linejoin: round; stroke-linecap: butt;  opacity: 1.000000" xlink:href="#m3b2d125790092c17af877e29e2858cbc" x="68.370000" y="356.400000"/>
</g></g>
<g id="line2d25">
<defs><path id="ma703e823af2458ee1159643fa9e31d3d" d="M0.000000 0.000000L0.000000 2.000000"/></defs>
<g ><use style="fill: none; stroke: #000000; stroke-width: 0.500000; stroke-linejoin: round; stroke-linecap: butt;  opacity: 1.000000" xlink:href="#ma703e823af2458ee1159643fa9e31d3d" x="68.370000" y="10.800000"/>
</g></g>
</g>
<g id="xtick8">
<g id="line2d26">
<g ><use style="fill: none; stroke: #000000; stroke-width: 0.500000; stroke-linejoin: round; stroke-linecap: butt;  opacity: 1.000000" xlink:href="#m3b2d125790092c17af877e29e2858cbc" x="90.690000" y="356.400000"/>
</g></g>
<g id="line2d27">
<g ><use style="fill: none; stroke: #000000; stroke-width: 0.500000; stroke-linejoin: round; stroke-linecap: butt;  opacity: 1.000000" xlink:href="#ma703e823af2458ee1159643fa9e31d3d" x="90.690000" y="10.800000"/>
</g></g>
</g>
<g id="xtick9">
<g id="line2d28">
<g ><use style="fill: none; stroke: #000000; stroke-width: 0.500000; stroke-linejoin: round; stroke-linecap: butt;  opacity: 1.000000" xlink:href="#m3b2d125790092c17af877e29e2858cbc" x="113.010000" y="356.400000"/>
</g></g>
<g id="line2d29">
<g ><use style="fill: none; stroke: #000000; stroke-width: 0.500000; stroke-linejoin: round; stroke-linecap: butt;  opacity: 1.000000" xlink:href="#ma703e823af2458ee1159643fa9e31d3d" x="113.010000" y="10.800000"/>
</g></g>
</g>
<g id="xtick10">
<g id="line2d30">
<g ><use style="fill: none; stroke: #000000; stroke-width: 0.500000; stroke-linejoin: round; stroke-linecap: butt;  opacity: 1.000000" xlink:href="#m3b2d125790092c17af877e29e2858cbc" x="157.650000" y="356.400000"/>
</g></g>
<g id="line2d31">
<g ><use style="fill: none; stroke: #000000; stroke-width: 0.500000; stroke-linejoin: round; stroke-linecap: butt;  opacity: 1.000000" xlink:href="#ma703e823af2458ee1159643fa9e31d3d" x="157.650000" y="10.800000"/>
</g></g>
</g>
<g id="xtick11">
<g id="line2d32">
<g ><use style="fill: none; stroke: #000000; stroke-width: 0.500000; stroke-linejoin: round; stroke-linecap: butt;  opacity: 1.000000" xlink:href="#m3b2d125790092c17af877e29e2858cbc" x="179.970000" y="356.400000"/>
</g></g>
<g id="line2d33">
<g ><use style="fill: none; stroke: #000000; stroke-width: 0.500000; stroke-linejoin: round; stroke-linecap: butt;  opacity: 1.000000" xlink:href="#ma703e823af2458ee1159643fa9e31d3d" x="179.970000" y="10.800000"/>
</g></g>
</g>
<g id="xtick12">
<g id="line2d34">
<g ><use style="fill: none; stroke: #000000; stroke-width: 0.500000; stroke-linejoin: round; stroke-linecap: butt;  opacity: 1.000000" xlink:href="#m3b2d125790092c17af877e29e2858cbc" x="202.290000" y="356.400000"/>
</g></g>
<g id="line2d35">
<g ><use style="fill: none; stroke: #000000; stroke-width: 0.500000; stroke-linejoin: round; stroke-linecap: butt;  opacity: 1.000000" xlink:href="#ma703e823af2458ee1159643fa9e31d3d" x="202.290000" y="10.800000"/>
</g></g>
</g>
<g id="xtick13">
<g id="line2d36">
<g ><use style="fill: none; stroke: #000000; stroke-width: 0.500000; stroke-linejoin: round; stroke-linecap: butt;  opacity: 1.000000" xlink:href="#m3b2d125790092c17af877e29e2858cbc" x="246.930000" y="356.400000"/>
</g></g>
<g id="line2d37">
<g ><use style="fill: none; stroke: #000000; stroke-width: 0.500000; stroke-linejoin: round; stroke-linecap: butt;  opacity: 1.000000" xlink:href="#ma703e823af2458ee1159643fa9e31d3d" x="246.930000" y="10.800000"/>
</g></g>
</g>
<g id="xtick14">
<g id="line2d38">
<g ><use style="fill: none; stroke: #000000; stroke-width: 0.500000; stroke-linejoin: round; stroke-linecap: butt;  opacity: 1.000000" xlink:href="#m3b2d125790092c17af877e29e2858cbc" x="269.250000" y="356.400000"/>
</g></g>
<g id="line2d39">
<g ><use style="fill: none; stroke: #000000; stroke-width: 0.500000; stroke-linejoin: round; stroke-linecap: butt;  opacity: 1.000000" xlink:href="#ma703e823af2458ee1159643fa9e31d3d" x="269.250000" y="10.800000"/>
</g></g>
</g>
<g id="xtick15">
<g id="line2d40">
<g ><use style="fill: none; stroke: #000000; stroke-width: 0.500000; stroke-linejoin: round; stroke-linecap: butt;  opacity: 1.000000" xlink:href="#m3b2d125790092c17af877e29e2858cbc" x="291.570000" y="356.400000"/>
</g></g>
<g id="line2d41">
<g ><use style="fill: none; stroke: #000000; stroke-width: 0.500000; stroke-linejoin: round; stroke-linecap: butt;  opacity: 1.000000" xlink:href="#ma703e823af2458ee1159643fa9e31d3d" x="291.570000" y="10.800000"/>
</g></g>
</g>
<g id="xtick16">
<g id="line2d42">
<g ><use style="fill: none; stroke: #000000; stroke-width: 0.500000; stroke-linejoin: round; stroke-linecap: butt;  opacity: 1.000000" xlink:href="#m3b2d125790092c17af877e29e2858cbc" x="336.210000" y="356.400000"/>
</g></g>
<g id="line2d43">
<g ><use style="fill: none; stroke: #000000; stroke-width: 0.500000; stroke-linejoin: round; stroke-linecap: butt;  opacity: 1.000000" xlink:href="#ma703e823af2458ee1159643fa9e31d3d" x="336.210000" y="10.800000"/>
</g></g>
</g>
<g id="xtick17">
<g id="line2d44">
<g ><use style="fill: none; stroke: #000000; stroke-width: 0.500000; stroke-linejoin: round; stroke-linecap: butt;  opacity: 1.000000" xlink:href="#m3b2d125790092c17af877e29e2858cbc" x="358.530000" y="356.400000"/>
</g></g>
<g id="line2d45">
<g ><use style="fill: none; stroke: #000000; stroke-width: 0.500000; stroke-linejoin: round; stroke-linecap: butt;  opacity: 1.000000" xlink:href="#ma703e823af2458ee1159643fa9e31d3d" x="358.530000" y="10.800000"/>
</g></g>
</g>
<g id="xtick18">
<g id="line2d46">
<g ><use style="fill: none; stroke: #000000; stroke-width: 0.500000; stroke-linejoin: round; stroke-linecap: butt;  opacity: 1.000000" xlink:href="#m3b2d125790092c17af877e29e2858cbc" x="380.850000" y="356.400000"/>
</g></g>
<g id="line2d47">
<g ><use style="fill: none; stroke: #000000; stroke-width: 0.500000; stroke-linejoin: round; stroke-linecap: butt;  opacity: 1.000000" xlink:href="#ma703e823af2458ee1159643fa9e31d3d" x="380.850000" y="10.800000"/>
</g></g>
</g>
<g id="xtick19">
<g id="line2d48">
<g ><use style="fill: none; stroke: #000000; stroke-width: 0.500000; stroke-linejoin: round; stroke-linecap: butt;  opacity: 1.000000" xlink:href="#m3b2d125790092c17af877e29e2858cbc" x="425.490000" y="356.400000"/>
</g></g>
<g id="line2d49">
<g ><use style="fill: none; stroke: #000000; stroke-width: 0.500000; stroke-linejoin: round; stroke-linecap: butt;  opacity: 1.000000" xlink:href="#ma703e823af2458ee1159643fa9e31d3d" x="425.490000" y="10.800000"/>
</g></g>
</g>
<g id="xtick20">
<g id="line2d50">
<g ><use style="fill: none; stroke: #000000; stroke-width: 0.500000; stroke-linejoin: round; stroke-linecap: butt;  opacity: 1.000000" xlink:href="#m3b2d125790092c17af877e29e2858cbc" x="447.810000" y="356.400000"/>
</g></g>
<g id="line2d51">
<g ><use style="fill: none; stroke: #000000; stroke-width: 0.500000; stroke-linejoin: round; stroke-linecap: butt;  opacity: 1.000000" xlink:href="#ma703e823af2458ee1159643fa9e31d3d" x="447.810000" y="10.800000"/>
</g></g>
</g>
<g id="xtick21">
<g id="line2d52">
<g ><use style="fill: none; stroke: #000000; stroke-width: 0.500000; stroke-linejoin: round; stroke-linecap: butt;  opacity: 1.000000" xlink:href="#m3b2d125790092c17af877e29e2858cbc" x="470.130000" y="356.400000"/>
</g></g>
<g id="line2d53">
<g ><use style="fill: none; stroke: #000000; stroke-width: 0.500000; stroke-linejoin: round; stroke-linecap: butt;  opacity: 1.000000" xlink:href="#ma703e823af2458ee1159643fa9e31d3d" x="470.130000" y="10.800000"/>
</g></g>
</g>
<g id="text7">
<defs>
<path id="c_801fe2e877fad46da27c898b407b3b54" d="M54.890625 -54.687500l-19.781250 26.609375l20.796875 28.078125l-10.593750 0.000000l-15.921875 -21.484375l-15.906250 21.484375l-10.609375 0.000000l21.250000 -28.609375l-19.437500 -26.078125l10.593750 0.000000l14.500000 19.484375l14.500000 -19.484375z"/>
</defs>
<g style="fill: #000000; opacity: 1.000000" transform="translate(266.070312,381.040625)scale(0.120000)">
<use xlink:href="#c_801fe2e877fad46da27c898b407b3b54"/>
</g>
</g>
</g>
<g id="matplotlib.axis2">
<g id="ytick1">
<g id="line2d54">
<path style="fill: none; stroke: #000000; stroke-width: 0.500000; stroke-linejoin: round; stroke-linecap: butt; stroke-dasharray: 1.000000,3.000000; stroke-dashoffset: 0.000000; opacity: 1.000000" clip-path="url(#p02677d881125d9b767acc670dcdddcc4)" d="M46.050000 356.400000L492.450000 356.400000"/>
</g>
<g id="line2d55">
<defs><path id="m3400efa6b1638b3fea9e19e898273957" d="M0.000000 0.000000L4.000000 0.000000"/></defs>
<g ><use style="fill: none; stroke: #000000; stroke-width: 0.500000; stroke-linejoin: round; stroke-linecap: butt;  opacity: 1.000000" xlink:href="#m3400efa6b1638b3fea9e19e898273957" x="46.050000" y="356.400000"/>
</g></g>
<g id="line2d56">
<defs><path id="m20b58b2501143cb5e0a5e8f1ef6f1643" d="M0.000000 0.000000L-4.000000 0.000000"/></defs>
<g ><use style="fill: none; stroke: #000000; stroke-width: 0.500000; stroke-linejoin: round; stroke-linecap: butt;  opacity: 1.000000" xlink:href="#m20b58b2501143cb5e0a5e8f1ef6f1643" x="492.450000" y="356.400000"/>
</g></g>
<g id="text8">
<g style="fill: #000000; opacity: 1.000000" transform="translate(24.550000,360.767187)scale(0.120000)">
<use xlink:href="#c_7a2040fe3b94fcd41d0a72c84e93b115"/>
<use xlink:href="#c_ed3e21196fb739f392806f09ca0594ef" x="63.623047"/>
<use xlink:href="#c_7a2040fe3b94fcd41d0a72c84e93b115" x="95.410156"/>
</g>
</g>
</g>
<g id="ytick2">
<g id="line2d57">
<path style="fill: none; stroke: #000000; stroke-width: 0.500000; stroke-linejoin: round; stroke-linecap: butt; stroke-dasharray: 1.000000,3.000000; stroke-dashoffset: 0.000000; opacity: 1.000000" clip-path="url(#p02677d881125d9b767acc670dcdddcc4)" d="M46.050000 289.938462L492.450000 289.938462"/>
</g>
<g id="line2d58">
<g ><use style="fill: none; stroke: #000000; stroke-width: 0.500000; stroke-linejoin: round; stroke-linecap: butt;  opacity: 1.000000" xlink:href="#m3400efa6b1638b3fea9e19e898273957" x="46.050000" y="289.938462"/>
</g></g>
<g id="line2d59">
<g ><use style="fill: none; stroke: #000000; stroke-width: 0.500000; stroke-linejoin: round; stroke-linecap: butt;  opacity: 1.000000" xlink:href="#m20b58b2501143cb5e0a5e8f1ef6f1643" x="492.450000" y="289.938462"/>
</g></g>
<g id="text9">
<defs>
<path id="c_1260a2df50f305f3db244e29828f968e" d="M10.796875 -72.906250l38.718750 0.000000l0.000000 8.312500l-29.687500 0.000000l0.000000 17.859375q2.140625 -0.734375 4.281250 -1.093750q2.156250 -0.359375 4.312500 -0.359375q12.203125 0.000000 19.328125 6.687500q7.140625 6.687500 7.140625 18.109375q0.000000 11.765625 -7.328125 18.296875q-7.328125 6.515625 -20.656250 6.515625q-4.593750 0.000000 -9.359375 -0.781250q-4.750000 -0.781250 -9.828125 -2.343750l0.000000 -9.921875q4.390625 2.390625 9.078125 3.562500q4.687500 1.171875 9.906250 1.171875q8.453125 0.000000 13.375000 -4.437500q4.937500 -4.437500 4.937500 -12.062500q0.000000 -7.609375 -4.937500 -12.046875q-4.921875 -4.453125 -13.375000 -4.453125q-3.953125 0.000000 -7.890625 0.875000q-3.921875 0.875000 -8.015625 2.734375z"/>
</defs>
<g style="fill: #000000; opacity: 1.000000" transform="translate(24.800000,294.305649)scale(0.120000)">
<use xlink:href="#c_7a2040fe3b94fcd41d0a72c84e93b115"/>
<use xlink:href="#c_ed3e21196fb739f392806f09ca0594ef" x="63.623047"/>
<use xlink:href="#c_1260a2df50f305f3db244e29828f968e" x="95.410156"/>
</g>
</g>
</g>
<g id="ytick3">
<g id="line2d60">
<path style="fill: none; stroke: #000000; stroke-width: 0.500000; stroke-linejoin: round; stroke-linecap: butt; stroke-dasharray: 1.000000,3.000000; stroke-dashoffset: 0.000000; opacity: 1.000000" clip-path="url(#p02677d881125d9b767acc670dcdddcc4)" d="M46.050000 223.476923L492.450000 223.476923"/>
</g>
<g id="line2d61">
<g ><use style="fill: none; stroke: #000000; stroke-width: 0.500000; stroke-linejoin: round; stroke-linecap: butt;  opacity: 1.000000" xlink:href="#m3400efa6b1638b3fea9e19e898273957" x="46.050000" y="223.476923"/>
</g></g>
<g id="line2d62">
<g ><use style="fill: none; stroke: #000000; stroke-width: 0.500000; stroke-linejoin: round; stroke-linecap: butt;  opacity: 1.000000" xlink:href="#m20b58b2501143cb5e0a5e8f1ef6f1643" x="492.450000" y="223.476923"/>
</g></g>
<g id="text10">
<g style="fill: #000000; opacity: 1.000000" transform="translate(25.065625,227.844111)scale(0.120000)">
<use xlink:href="#c_42baa63129a918535c52adb20d687ea7"/>
<use xlink:href="#c_ed3e21196fb739f392806f09ca0594ef" x="63.623047"/>
<use xlink:href="#c_7a2040fe3b94fcd41d0a72c84e93b115" x="95.410156"/>
</g>
</g>
</g>
<g id="ytick4">
<g id="line2d63">
<path style="fill: none; stroke: #000000; stroke-width: 0.500000; stroke-linejoin: round; stroke-linecap: butt; stroke-dasharray: 1.000000,3.000000; stroke-dashoffset: 0.000000; opacity: 1.000000" clip-path="url(#p02677d881125d9b767acc670dcdddcc4)" d="M46.050000 157.015385L492.450000 157.015385"/>
</g>
<g id="line2d64">
<g ><use style="fill: none; stroke: #000000; stroke-width: 0.500000; stroke-linejoin: round; stroke-linecap: butt;  opacity: 1.000000" xlink:href="#m3400efa6b1638b3fea9e19e898273957" x="46.050000" y="157.015385"/>
</g></g>
<g id="line2d65">
<g ><use style="fill: none; stroke: #000000; stroke-width: 0.500000; stroke-linejoin: round; stroke-linecap: butt;  opacity: 1.000000" xlink:href="#m20b58b2501143cb5e0a5e8f1ef6f1643" x="492.450000" y="157.015385"/>
</g></g>
<g id="text11">
<g style="fill: #000000; opacity: 1.000000" transform="translate(25.315625,161.304447)scale(0.120000)">
<use xlink:href="#c_42baa63129a918535c52adb20d687ea7"/>
<use xlink:href="#c_ed3e21196fb739f392806f09ca0594ef" x="63.623047"/>
<use xlink:href="#c_1260a2df50f305f3db244e29828f968e" x="95.410156"/>
</g>
</g>
</g>
<g id="ytick5">
<g id="line2d66">
<path style="fill: none; stroke: #000000; stroke-width: 0.500000; stroke-linejoin: round; stroke-linecap: butt; stroke-dasharray: 1.000000,3.000000; stroke-dashoffset: 0.000000; opacity: 1.000000" clip-path="url(#p02677d881125d9b767acc670dcdddcc4)" d="M46.050000 90.553846L492.450000 90.553846"/>
</g>
<g id="line2d67">
<g ><use style="fill: none; stroke: #000000; stroke-width: 0.500000; stroke-linejoin: round; stroke-linecap: butt;  opacity: 1.000000" xlink:href="#m3400efa6b1638b3fea9e19e898273957" x="46.050000" y="90.553846"/>
</g></g>
<g id="line2d68">
<g ><use style="fill: none; stroke: #000000; stroke-width: 0.500000; stroke-linejoin: round; stroke-linecap: butt;  opacity: 1.000000" xlink:href="#m20b58b2501143cb5e0a5e8f1ef6f1643" x="492.450000" y="90.553846"/>
</g></g>
<g id="text12">
<g style="fill: #000000; opacity: 1.000000" transform="translate(24.628125,94.921034)scale(0.120000)">
<use xlink:href="#c_ed3f3ed3ebfbd18bcb9c012009a68ad1"/>
<use xlink:href="#c_ed3e21196fb739f392806f09ca0594ef" x="63.623047"/>
<use xlink:href="#c_7a2040fe3b94fcd41d0a72c84e93b115" x="95.410156"/>
</g>
</g>
</g>
<g id="ytick6">
<g id="line2d69">
<path style="fill: none; stroke: #000000; stroke-width: 0.500000; stroke-linejoin: round; stroke-linecap: butt; stroke-dasharray: 1.000000,3.000000; stroke-dashoffset: 0.000000; opacity: 1.000000" clip-path="url(#p02677d881125d9b767acc670dcdddcc4)" d="M46.050000 24.092308L492.450000 24.092308"/>
</g>
<g id="line2d70">
<g ><use style="fill: none; stroke: #000000; stroke-width: 0.500000; stroke-linejoin: round; stroke-linecap: butt;  opacity: 1.000000" xlink:href="#m3400efa6b1638b3fea9e19e898273957" x="46.050000" y="24.092308"/>
</g></g>
<g id="line2d71">
<g ><use style="fill: none; stroke: #000000; stroke-width: 0.500000; stroke-linejoin: round; stroke-linecap: butt;  opacity: 1.000000" xlink:href="#m20b58b2501143cb5e0a5e8f1ef6f1643" x="492.450000" y="24.092308"/>
</g></g>
<g id="text13">
<g style="fill: #000000; opacity: 1.000000" transform="translate(24.878125,28.459495)scale(0.120000)">
<use xlink:href="#c_ed3f3ed3ebfbd18bcb9c012009a68ad1"/>
<use xlink:href="#c_ed3e21196fb739f392806f09ca0594ef" x="63.623047"/>
<use xlink:href="#c_1260a2df50f305f3db244e29828f968e" x="95.410156"/>
</g>
</g>
</g>
<g id="ytick7">
<g id="line2d72">
<defs><path id="mb39cfcf7402899e54c4d755745537394" d="M0.000000 0.000000L2.000000 0.000000"/></defs>
<g ><use style="fill: none; stroke: #000000; stroke-width: 0.500000; stroke-linejoin: round; stroke-linecap: butt;  opacity: 1.000000" xlink:href="#mb39cfcf7402899e54c4d755745537394" x="46.050000" y="343.107692"/>
</g></g>
<g id="line2d73">
<defs><path id="m6046ccd8b6d57b9fb587e3fdd930e9c5" d="M0.000000 0.000000L-2.000000 0.000000"/></defs>
<g ><use style="fill: none; stroke: #000000; stroke-width: 0.500000; stroke-linejoin: round; stroke-linecap: butt;  opacity: 1.000000" xlink:href="#m6046ccd8b6d57b9fb587e3fdd930e9c5" x="492.450000" y="343.107692"/>
</g></g>
</g>
<g id="ytick8">
<g id="line2d74">
<g ><use style="fill: none; stroke: #000000; stroke-width: 0.500000; stroke-linejoin: round; stroke-linecap: butt;  opacity: 1.000000" xlink:href="#mb39cfcf7402899e54c4d755745537394" x="46.050000" y="329.815385"/>
</g></g>
<g id="line2d75">
<g ><use style="fill: none; stroke: #000000; stroke-width: 0.500000; stroke-linejoin: round; stroke-linecap: butt;  opacity: 1.000000" xlink:href="#m6046ccd8b6d57b9fb587e3fdd930e9c5" x="492.450000" y="329.815385"/>
</g></g>
</g>
<g id="ytick9">
<g id="line2d76">
<g ><use style="fill: none; stroke: #000000; stroke-width: 0.500000; stroke-linejoin: round; stroke-linecap: butt;  opacity: 1.000000" xlink:href="#mb39cfcf7402899e54c4d755745537394" x="46.050000" y="316.523077"/>
</g></g>
<g id="line2d77">
<g ><use style="fill: none; stroke: #000000; stroke-width: 0.500000; stroke-linejoin: round; stroke-linecap: butt;  opacity: 1.000000" xlink:href="#m6046ccd8b6d57b9fb587e3fdd930e9c5" x="492.450000" y="316.523077"/>
</g></g>
</g>
<g id="ytick10">
<g id="line2d78">
<g ><use style="fill: none; stroke: #000000; stroke-width: 0.500000; stroke-linejoin: round; stroke-linecap: butt;  opacity: 1.000000" xlink:href="#mb39cfcf7402899e54c4d755745537394" x="46.050000" y="303.230769"/>
</g></g>
<g id="line2d79">
<g ><use style="fill: none; stroke: #000000; stroke-width: 0.500000; stroke-linejoin: round; stroke-linecap: butt;  opacity: 1.000000" xlink:href="#m6046ccd8b6d57b9fb587e3fdd930e9c5" x="492.450000" y="303.230769"/>
</g></g>
</g>
<g id="ytick11">
<g id="line2d80">
<g ><use style="fill: none; stroke: #000000; stroke-width: 0.500000; stroke-linejoin: round; stroke-linecap: butt;  opacity: 1.000000" xlink:href="#mb39cfcf7402899e54c4d755745537394" x="46.050000" y="276.646154"/>
</g></g>
<g id="line2d81">
<g ><use style="fill: none; stroke: #000000; stroke-width: 0.500000; stroke-linejoin: round; stroke-linecap: butt;  opacity: 1.000000" xlink:href="#m6046ccd8b6d57b9fb587e3fdd930e9c5" x="492.450000" y="276.646154"/>
</g></g>
</g>
<g id="ytick12">
<g id="line2d82">
<g ><use style="fill: none; stroke: #000000; stroke-width: 0.500000; stroke-linejoin: round; stroke-linecap: butt;  opacity: 1.000000" xlink:href="#mb39cfcf7402899e54c4d755745537394" x="46.050000" y="263.353846"/>
</g></g>
<g id="line2d83">
<g ><use style="fill: none; stroke: #000000; stroke-width: 0.500000; stroke-linejoin: round; stroke-linecap: butt;  opacity: 1.000000" xlink:href="#m6046ccd8b6d57b9fb587e3fdd930e9c5" x="492.450000" y="263.353846"/>
</g></g>
</g>
<g id="ytick13">
<g id="line2d84">
<g ><use style="fill: none; stroke: #000000; stroke-width: 0.500000; stroke-linejoin: round; stroke-linecap: butt;  opacity: 1.000000" xlink:href="#mb39cfcf7402899e54c4d755745537394" x="46.050000" y="250.061538"/>
</g></g>
<g id="line2d85">
<g ><use style="fill: none; stroke: #000000; stroke-width: 0.500000; stroke-linejoin: round; stroke-linecap: butt;  opacity: 1.000000" xlink:href="#m6046ccd8b6d57b9fb587e3fdd930e9c5" x="492.450000" y="250.061538"/>
</g></g>
</g>
<g id="ytick14">
<g id="line2d86">
<g ><use style="fill: none; stroke: #000000; stroke-width: 0.500000; stroke-linejoin: round; stroke-linecap: butt;  opacity: 1.000000" xlink:href="#mb39cfcf7402899e54c4d755745537394" x="46.050000" y="236.769231"/>
</g></g>
<g id="line2d87">
<g ><use style="fill: none; stroke: #000000; stroke-width: 0.500000; stroke-linejoin: round; stroke-linecap: butt;  opacity: 1.000000" xlink:href="#m6046ccd8b6d57b9fb587e3fdd930e9c5" x="492.450000" y="236.769231"/>
</g></g>
</g>
<g id="ytick15">
<g id="line2d88">
<g ><use style="fill: none; stroke: #000000; stroke-width: 0.500000; stroke-linejoin: round; stroke-linecap: butt;  opacity: 1.000000" xlink:href="#mb39cfcf7402899e54c4d755745537394" x="46.050000" y="210.184615"/>
</g></g>
<g id="line2d89">
<g ><use style="fill: none; stroke: #000000; stroke-width: 0.500000; stroke-linejoin: round; stroke-linecap: butt;  opacity: 1.000000" xlink:href="#m6046ccd8b6d57b9fb587e3fdd930e9c5" x="492.450000" y="210.184615"/>
</g></g>
</g>
<g id="ytick16">
<g id="line2d90">
<g ><use style="fill: none; stroke: #000000; stroke-width: 0.500000; stroke-linejoin: round; stroke-linecap: butt;  opacity: 1.000000" xlink:href="#mb39cfcf7402899e54c4d755745537394" x="46.050000" y="196.892308"/>
</g></g>
<g id="line2d91">
<g ><use style="fill: none; stroke: #000000; stroke-width: 0.500000; stroke-linejoin: round; stroke-linecap: butt;  opacity: 1.000000" xlink:href="#m6046ccd8b6d57b9fb587e3fdd930e9c5" x="492.450000" y="196.892308"/>
</g></g>
</g>
<g id="ytick17">
<g id="line2d92">
<g ><use style="fill: none; stroke: #000000; stroke-width: 0.500000; stroke-linejoin: round; stroke-linecap: butt;  opacity: 1.000000" xlink:href="#mb39cfcf7402899e54c4d755745537394" x="46.050000" y="183.600000"/>
</g></g>
<g id="line2d93">
<g ><use style="fill: none; stroke: #000000; stroke-width: 0.500000; stroke-linejoin: round; stroke-linecap: butt;  opacity: 1.000000" xlink:href="#m6046ccd8b6d57b9fb587e3fdd930e9c5" x="492.450000" y="183.600000"/>
</g></g>
</g>
<g id="ytick18">
<g id="line2d94">
<g ><use style="fill: none; stroke: #000000; stroke-width: 0.500000; stroke-linejoin: round; stroke-linecap: butt;  opacity: 1.000000" xlink:href="#mb39cfcf7402899e54c4d755745537394" x="46.050000" y="170.307692"/>
</g></g>
<g id="line2d95">
<g ><use style="fill: none; stroke: #000000; stroke-width: 0.500000; stroke-linejoin: round; stroke-linecap: butt;  opacity: 1.000000" xlink:href="#m6046ccd8b6d57b9fb587e3fdd930e9c5" x="492.450000" y="170.307692"/>
</g></g>
</g>
<g id="ytick19">
<g id="line2d96">
<g ><use style="fill: none; stroke: #000000; stroke-width: 0.500000; stroke-linejoin: round; stroke-linecap: butt;  opacity: 1.000000" xlink:href="#mb39cfcf7402899e54c4d755745537394" x="46.050000" y="143.723077"/>
</g></g>
<g id="line2d97">
<g ><use style="fill: none; stroke: #000000; stroke-width: 0.500000; stroke-linejoin: round; stroke-linecap: butt;  opacity: 1.000000" xlink:href="#m6046ccd8b6d57b9fb587e3fdd930e9c5" x="492.450000" y="143.723077"/>
</g></g>
</g>
<g id="ytick20">
<g id="line2d98">
<g ><use style="fill: none; stroke: #000000; stroke-width: 0.500000; stroke-linejoin: round; stroke-linecap: butt;  opacity: 1.000000" xlink:href="#mb39cfcf7402899e54c4d755745537394" x="46.050000" y="130.430769"/>
</g></g>
<g id="line2d99">
<g ><use style="fill: none; stroke: #000000; stroke-width: 0.500000; stroke-linejoin: round; stroke-linecap: butt;  opacity: 1.000000" xlink:href="#m6046ccd8b6d57b9fb587e3fdd930e9c5" x="492.450000" y="130.430769"/>
</g></g>
</g>
<g id="ytick21">
<g id="line2d100">
<g ><use style="fill: none; stroke: #000000; stroke-width: 0.500000; stroke-linejoin: round; stroke-linecap: butt;  opacity: 1.000000" xlink:href="#mb39cfcf7402899e54c4d755745537394" x="46.050000" y="117.138462"/>
</g></g>
<g id="line2d101">
<g ><use style="fill: none; stroke: #000000; stroke-width: 0.500000; stroke-linejoin: round; stroke-linecap: butt;  opacity: 1.000000" xlink:href="#m6046ccd8b6d57b9fb587e3fdd930e9c5" x="492.450000" y="117.138462"/>
</g></g>
</g>
<g id="ytick22">
<g id="line2d102">
<g ><use style="fill: none; stroke: #000000; stroke-width: 0.500000; stroke-linejoin: round; stroke-linecap: butt;  opacity: 1.000000" xlink:href="#mb39cfcf7402899e54c4d755745537394" x="46.050000" y="103.846154"/>
</g></g>
<g id="line2d103">
<g ><use style="fill: none; stroke: #000000; stroke-width: 0.500000; stroke-linejoin: round; stroke-linecap: butt;  opacity: 1.000000" xlink:href="#m6046ccd8b6d57b9fb587e3fdd930e9c5" x="492.450000" y="103.846154"/>
</g></g>
</g>
<g id="ytick23">
<g id="line2d104">
<g ><use style="fill: none; stroke: #000000; stroke-width: 0.500000; stroke-linejoin: round; stroke-linecap: butt;  opacity: 1.000000" xlink:href="#mb39cfcf7402899e54c4d755745537394" x="46.050000" y="77.261538"/>
</g></g>
<g id="line2d105">
<g ><use style="fill: none; stroke: #000000; stroke-width: 0.500000; stroke-linejoin: round; stroke-linecap: butt;  opacity: 1.000000" xlink:href="#m6046ccd8b6d57b9fb587e3fdd930e9c5" x="492.450000" y="77.261538"/>
</g></g>
</g>
<g id="ytick24">
<g id="line2d106">
<g ><use style="fill: none; stroke: #000000; stroke-width: 0.500000; stroke-linejoin: round; stroke-linecap: butt;  opacity: 1.000000" xlink:href="#mb39cfcf7402899e54c4d755745537394" x="46.050000" y="63.969231"/>
</g></g>
<g id="line2d107">
<g ><use style="fill: none; stroke: #000000; stroke-width: 0.500000; stroke-linejoin: round; stroke-linecap: butt;  opacity: 1.000000" xlink:href="#m6046ccd8b6d57b9fb587e3fdd930e9c5" x="492.450000" y="63.969231"/>
</g></g>
</g>
<g id="ytick25">
<g id="line2d108">
<g ><use style="fill: none; stroke: #000000; stroke-width: 0.500000; stroke-linejoin: round; stroke-linecap: butt;  opacity: 1.000000" xlink:href="#mb39cfcf7402899e54c4d755745537394" x="46.050000" y="50.676923"/>
</g></g>
<g id="line2d109">
<g ><use style="fill: none; stroke: #000000; stroke-width: 0.500000; stroke-linejoin: round; stroke-linecap: butt;  opacity: 1.000000" xlink:href="#m6046ccd8b6d57b9fb587e3fdd930e9c5" x="492.450000" y="50.676923"/>
</g></g>
</g>
<g id="ytick26">
<g id="line2d110">
<g ><use style="fill: none; stroke: #000000; stroke-width: 0.500000; stroke-linejoin: round; stroke-linecap: butt;  opacity: 1.000000" xlink:href="#mb39cfcf7402899e54c4d755745537394" x="46.050000" y="37.384615"/>
</g></g>
<g id="line2d111">
<g ><use style="fill: none; stroke: #000000; stroke-width: 0.500000; stroke-linejoin: round; stroke-linecap: butt;  opacity: 1.000000" xlink:href="#m6046ccd8b6d57b9fb587e3fdd930e9c5" x="492.450000" y="37.384615"/>
</g></g>
</g>
<g id="ytick27">
<g id="line2d112">
<g ><use style="fill: none; stroke: #000000; stroke-width: 0.500000; stroke-linejoin: round; stroke-linecap: butt;  opacity: 1.000000" xlink:href="#mb39cfcf7402899e54c4d755745537394" x="46.050000" y="10.800000"/>
</g></g>
<g id="line2d113">
<g ><use style="fill: none; stroke: #000000; stroke-width: 0.500000; stroke-linejoin: round; stroke-linecap: butt;  opacity: 1.000000" xlink:href="#m6046ccd8b6d57b9fb587e3fdd930e9c5" x="492.450000" y="10.800000"/>
</g></g>
</g>
<g id="text14">
<defs>
<path id="c_518d586bee075aa0153eaebfcb5ab11f" d="M19.671875 -64.796875l0.000000 27.390625l12.406250 0.000000q6.890625 0.000000 10.640625 -3.562500q3.765625 -3.562500 3.765625 -10.156250q0.000000 -6.546875 -3.765625 -10.109375q-3.750000 -3.562500 -10.640625 -3.562500zM9.812500 -72.906250l22.265625 0.000000q12.265625 0.000000 18.531250 5.546875q6.281250 5.546875 6.281250 16.234375q0.000000 10.796875 -6.281250 16.312500q-6.265625 5.515625 -18.531250 5.515625l-12.406250 0.000000l0.000000 29.296875l-9.859375 0.000000z"/>
<path id="c_ff9441f72805bc441fcb0bfe0d774f13" d="M19.671875 -64.796875l0.000000 56.687500l11.921875 0.000000q15.093750 0.000000 22.093750 -6.828125q7.000000 -6.843750 7.000000 -21.593750q0.000000 -14.640625 -7.000000 -21.453125q-7.000000 -6.812500 -22.093750 -6.812500zM9.812500 -72.906250l20.265625 0.000000q21.187500 0.000000 31.093750 8.812500q9.921875 8.812500 9.921875 27.562500q0.000000 18.859375 -9.968750 27.703125q-9.953125 8.828125 -31.046875 8.828125l-20.265625 0.000000z"/>
<path id="c_5d9b0d099c491f27a9f40b391fa98eef" d="M9.812500 -72.906250l41.890625 0.000000l0.000000 8.312500l-32.031250 0.000000l0.000000 21.484375l28.906250 0.000000l0.000000 8.296875l-28.906250 0.000000l0.000000 34.812500l-9.859375 0.000000z"/>
</defs>
<g style="fill: #000000; opacity: 1.000000" transform="translate(19.550000,194.350000)rotate(-90.0)scale(0.120000)">
<use xlink:href="#c_518d586bee075aa0153eaebfcb5ab11f"/>
<use xlink:href="#c_ff9441f72805bc441fcb0bfe0d774f13" x="60.302734"/>
<use xlink:href="#c_5d9b0d099c491f27a9f40b391fa98eef" x="137.304688"/>
</g>
</g>
</g>
<g id="patch3">
<path style="fill: none; stroke: #000000; stroke-width: 1.000000; stroke-linejoin: round; stroke-linecap: square;  opacity: 1.000000"  d="M46.050000 10.800000L492.450000 10.800000"/>
</g>
<g id="patch4">
<path style="fill: none; stroke: #000000; stroke-width: 1.000000; stroke-linejoin: round; stroke-linecap: square;  opacity: 1.000000"  d="M492.450000 356.400000L492.450000 10.800000"/>
</g>
<g id="patch5">
<path style="fill: none; stroke: #000000; stroke-width: 1.000000; stroke-linejoin: round; stroke-linecap: square;  opacity: 1.000000"  d="M46.050000 356.400000L492.450000 356.400000"/>
</g>
<g id="patch6">
<path style="fill: none; stroke: #000000; stroke-width: 1.000000; stroke-linejoin: round; stroke-linecap: square;  opacity: 1.000000"  d="M46.050000 356.400000L46.050000 10.800000"/>
</g>
<g id="legend1">
<g id="patch7">
<path style="fill: #ffffff; stroke: #000000; stroke-width: 1.000000; stroke-linejoin: round; stroke-linecap: square;  opacity: 1.000000"  d="M220.330000 119.032500L318.170000 119.032500L318.170000 18.000000
L220.330000 18.000000L220.330000 119.032500z"/>
</g>
<g id="line2d114">
<path style="fill: none; stroke: #0000ff; stroke-width: 1.000000; stroke-linejoin: round; stroke-linecap: square;  opacity: 1.000000"  d="M230.410000 28.800000L250.570000 28.800000"/>
</g>
<g id="line2d115">
</g>
<g id="text15">
<defs>
<path id="c_bc03a93813e543a118c59fdafeacee8b" d="M20.125000 1.125000q-4.750000 0.000000 -8.437500 -2.250000q-3.671875 -2.250000 -5.687500 -6.046875q-2.000000 -3.812500 -2.000000 -8.656250q0.000000 -6.781250 3.781250 -13.421875q3.796875 -6.640625 10.062500 -10.781250q6.281250 -4.156250 13.156250 -4.156250q5.078125 0.000000 8.937500 2.656250q3.859375 2.656250 5.859375 7.078125q2.000000 4.421875 2.000000 9.453125l0.109375 6.687500q3.406250 -4.734375 5.781250 -9.828125q2.375000 -5.109375 3.640625 -10.578125q0.187500 -0.593750 0.781250 -0.593750l1.171875 0.000000q0.921875 0.000000 0.921875 0.937500q0.000000 0.093750 -0.093750 0.281250q-1.171875 4.593750 -2.937500 8.828125q-1.750000 4.218750 -4.125000 8.171875q-2.359375 3.953125 -5.140625 7.171875q0.000000 12.406250 2.875000 12.406250q1.859375 0.000000 3.046875 -1.093750q1.203125 -1.109375 2.109375 -2.718750q0.906250 -1.609375 1.140625 -1.656250l1.218750 0.000000q0.781250 0.000000 0.781250 0.984375q0.000000 2.484375 -2.859375 4.812500q-2.843750 2.312500 -5.625000 2.312500q-3.625000 0.000000 -6.015625 -2.343750q-2.390625 -2.343750 -3.265625 -6.109375q-4.687500 4.000000 -10.156250 6.234375q-5.468750 2.218750 -11.031250 2.218750M20.312500 -1.515625q10.687500 0.000000 20.515625 -8.781250q-0.062500 -0.593750 -0.156250 -1.437500q-0.093750 -0.859375 -0.093750 -0.968750l0.000000 -10.781250q0.000000 -18.125000 -9.765625 -18.125000q-5.859375 0.000000 -10.265625 5.015625q-4.390625 5.000000 -6.609375 11.968750q-2.218750 6.953125 -2.218750 12.703125q0.000000 4.359375 2.218750 7.390625q2.218750 3.015625 6.375000 3.015625"/>
<path id="c_7bbc93c01755cdeb977d08bdfb9ce616" d="M7.515625 -13.281250q-0.828125 0.000000 -1.375000 -0.625000q-0.531250 -0.640625 -0.531250 -1.375000q0.000000 -0.828125 0.531250 -1.406250q0.546875 -0.593750 1.375000 -0.593750l62.796875 0.000000q0.734375 0.000000 1.265625 0.593750q0.546875 0.578125 0.546875 1.406250q0.000000 0.734375 -0.546875 1.375000q-0.531250 0.625000 -1.265625 0.625000zM7.515625 -32.718750q-0.828125 0.000000 -1.375000 -0.578125q-0.531250 -0.593750 -0.531250 -1.421875q0.000000 -0.734375 0.531250 -1.359375q0.546875 -0.640625 1.375000 -0.640625l62.796875 0.000000q0.734375 0.000000 1.265625 0.640625q0.546875 0.625000 0.546875 1.359375q0.000000 0.828125 -0.546875 1.421875q-0.531250 0.578125 -1.265625 0.578125z"/>
<path id="c_69dc50131244cbd363528a547fd15b91" d="M2.687500 19.390625q-0.296875 0.000000 -0.546875 -0.343750q-0.234375 -0.343750 -0.234375 -0.640625l15.375000 -61.812500q1.328125 -4.984375 3.859375 -9.671875q2.546875 -4.687500 6.375000 -8.718750q3.828125 -4.031250 8.421875 -6.375000q4.593750 -2.343750 9.765625 -2.343750q3.718750 0.000000 6.718750 1.640625q3.000000 1.640625 4.734375 4.593750q1.734375 2.953125 1.734375 6.656250q0.000000 3.578125 -1.375000 6.828125q-1.359375 3.234375 -3.812500 6.046875q-2.437500 2.812500 -5.218750 4.562500q1.609375 1.031250 2.875000 2.625000q1.281250 1.578125 2.062500 3.312500q0.781250 1.734375 1.218750 3.859375q0.437500 2.125000 0.437500 3.968750q0.000000 5.125000 -2.203125 10.109375q-2.187500 4.984375 -5.984375 9.046875q-3.781250 4.046875 -8.671875 6.421875q-4.875000 2.359375 -10.000000 2.359375q-5.609375 0.000000 -10.109375 -3.078125q-4.484375 -3.078125 -6.187500 -8.343750l-7.234375 28.703125q0.000000 0.593750 -0.781250 0.593750zM28.421875 -1.218750q4.484375 0.000000 8.125000 -2.953125q3.640625 -2.953125 6.000000 -7.421875q2.375000 -4.468750 3.609375 -9.468750q1.250000 -5.015625 1.250000 -9.109375q0.000000 -5.078125 -2.921875 -8.015625q-3.421875 1.265625 -6.687500 1.265625q-7.906250 0.000000 -7.906250 -2.671875q0.000000 -3.515625 9.031250 -3.515625q3.218750 0.000000 5.906250 1.015625q2.140625 -1.656250 3.890625 -4.875000q1.765625 -3.234375 2.671875 -6.750000q0.906250 -3.515625 0.906250 -6.578125q0.000000 -3.281250 -1.734375 -5.453125q-1.734375 -2.171875 -5.046875 -2.171875q-6.109375 0.000000 -11.359375 3.765625q-5.250000 3.750000 -8.859375 9.500000q-3.609375 5.734375 -5.171875 11.828125l-5.531250 22.125000q-0.531250 2.296875 -0.671875 5.125000q0.000000 6.250000 4.093750 10.312500q4.109375 4.046875 10.406250 4.046875M32.906250 -39.890625q1.515625 0.390625 4.984375 0.390625q1.703125 0.000000 3.421875 -0.593750q-0.093750 -0.093750 -0.390625 -0.093750q-1.078125 -0.296875 -2.296875 -0.296875q-4.546875 0.000000 -5.718750 0.593750"/>
<path id="c_f47f2818876b2f1a61c47f270461e46e" d="M25.000000 2.203125q-12.250000 0.000000 -16.671875 -10.078125q-4.421875 -10.093750 -4.421875 -24.015625q0.000000 -8.687500 1.578125 -16.343750q1.593750 -7.671875 6.296875 -13.015625q4.718750 -5.359375 13.218750 -5.359375q6.593750 0.000000 10.781250 3.234375q4.203125 3.218750 6.406250 8.328125q2.203125 5.093750 3.000000 10.937500q0.812500 5.828125 0.812500 12.218750q0.000000 8.593750 -1.593750 16.093750q-1.578125 7.500000 -6.218750 12.750000q-4.640625 5.250000 -13.187500 5.250000M25.000000 -0.390625q5.562500 0.000000 8.296875 -5.703125q2.734375 -5.718750 3.375000 -12.656250q0.640625 -6.937500 0.640625 -14.750000q0.000000 -7.515625 -0.640625 -13.859375q-0.640625 -6.359375 -3.359375 -11.500000q-2.703125 -5.156250 -8.312500 -5.156250q-5.656250 0.000000 -8.390625 5.187500q-2.734375 5.171875 -3.375000 11.500000q-0.640625 6.312500 -0.640625 13.828125q0.000000 5.562500 0.265625 10.500000q0.281250 4.937500 1.453125 10.187500q1.171875 5.250000 3.781250 8.843750q2.609375 3.578125 6.906250 3.578125"/>
<path id="c_8b48a7401ae680eb5f4c605f13a7b112" d="M8.406250 -5.515625q0.000000 -2.250000 1.656250 -3.859375q1.656250 -1.609375 3.859375 -1.609375q1.359375 0.000000 2.671875 0.734375q1.328125 0.734375 2.062500 2.046875q0.734375 1.312500 0.734375 2.687500q0.000000 2.187500 -1.625000 3.859375q-1.609375 1.656250 -3.843750 1.656250q-2.203125 0.000000 -3.859375 -1.656250q-1.656250 -1.671875 -1.656250 -3.859375"/>
<path id="c_7d09e94cce4bdf71f2297f5bbc354b76" d="M8.687500 -11.375000q1.031250 2.921875 3.156250 5.328125q2.125000 2.390625 5.031250 3.734375q2.906250 1.328125 6.031250 1.328125q7.218750 0.000000 9.953125 -5.609375q2.734375 -5.609375 2.734375 -13.625000q0.000000 -3.468750 -0.125000 -5.828125q-0.109375 -2.375000 -0.656250 -4.562500q-0.921875 -3.515625 -3.250000 -6.156250q-2.312500 -2.640625 -5.687500 -2.640625q-3.359375 0.000000 -5.781250 1.031250q-2.421875 1.015625 -3.937500 2.390625q-1.500000 1.359375 -2.671875 2.875000q-1.171875 1.515625 -1.468750 1.609375l-1.125000 0.000000q-0.250000 0.000000 -0.625000 -0.312500q-0.359375 -0.312500 -0.359375 -0.609375l0.000000 -33.406250q0.000000 -0.234375 0.312500 -0.500000q0.328125 -0.281250 0.671875 -0.281250l0.296875 0.000000q6.734375 3.234375 14.296875 3.234375q7.421875 0.000000 14.312500 -3.234375l0.296875 0.000000q0.343750 0.000000 0.625000 0.250000q0.296875 0.250000 0.296875 0.531250l0.000000 0.937500q0.000000 0.484375 -0.187500 0.484375q-3.421875 4.546875 -8.578125 7.093750q-5.156250 2.531250 -10.671875 2.531250q-4.000000 0.000000 -8.203125 -1.125000l0.000000 18.890625q3.328125 -2.687500 5.937500 -3.828125q2.609375 -1.156250 6.671875 -1.156250q5.515625 0.000000 9.875000 3.187500q4.375000 3.171875 6.718750 8.281250q2.343750 5.093750 2.343750 10.406250q0.000000 6.015625 -2.953125 11.140625q-2.953125 5.125000 -8.031250 8.156250q-5.078125 3.031250 -11.031250 3.031250q-4.937500 0.000000 -9.062500 -2.531250q-4.125000 -2.546875 -6.500000 -6.843750q-2.359375 -4.296875 -2.359375 -9.140625q0.000000 -2.250000 1.453125 -3.656250q1.468750 -1.421875 3.671875 -1.421875q2.203125 0.000000 3.687500 1.453125q1.484375 1.437500 1.484375 3.625000q0.000000 2.156250 -1.484375 3.640625q-1.484375 1.484375 -3.687500 1.484375q-0.343750 0.000000 -0.781250 -0.062500q-0.437500 -0.078125 -0.640625 -0.125000"/>
</defs>
<g id="mathtext1">
<g style="fill: #000000" transform="translate(266.410000,35.840000)">
<use xlink:href="#c_bc03a93813e543a118c59fdafeacee8b" transform="translate(0.000000,-2.953125)scale(0.099960)"/>
<use xlink:href="#c_7bbc93c01755cdeb977d08bdfb9ce616" transform="translate(8.134723,-2.953125)scale(0.099960)"/>
<use xlink:href="#c_69dc50131244cbd363528a547fd15b91" transform="translate(16.528464,-2.953125)scale(0.099960)"/>
<use xlink:href="#c_7bbc93c01755cdeb977d08bdfb9ce616" transform="translate(23.922159,-2.953125)scale(0.099960)"/>
<use xlink:href="#c_f47f2818876b2f1a61c47f270461e46e" transform="translate(32.315900,-2.953125)scale(0.099960)"/>
<use xlink:href="#c_8b48a7401ae680eb5f4c605f13a7b112" transform="translate(37.308087,-2.953125)scale(0.099960)"/>
<use xlink:href="#c_7d09e94cce4bdf71f2297f5bbc354b76" transform="translate(40.154953,-2.953125)scale(0.099960)"/>
</g>
</g>
</g>
<g id="line2d116">
<path style="fill: none; stroke: #008000; stroke-width: 1.000000; stroke-linejoin: round; stroke-linecap: square;  opacity: 1.000000"  d="M230.410000 48.158125L250.570000 48.158125"/>
</g>
<g id="line2d117">
</g>
<g id="text16">
<defs>
<path id="c_01bd98e0cf1b355b13e73042b8c9bdee" d="M9.906250 18.015625q0.000000 -0.437500 0.390625 -0.828125q3.625000 -3.468750 5.625000 -8.015625q2.000000 -4.531250 2.000000 -9.562500l0.000000 -1.218750q-1.609375 1.609375 -4.000000 1.609375q-2.296875 0.000000 -3.906250 -1.609375q-1.609375 -1.609375 -1.609375 -3.906250q0.000000 -2.343750 1.609375 -3.906250q1.609375 -1.562500 3.906250 -1.562500q3.562500 0.000000 5.078125 3.296875q1.515625 3.296875 1.515625 7.296875q0.000000 5.562500 -2.234375 10.562500q-2.218750 5.015625 -6.265625 9.015625q-0.390625 0.203125 -0.640625 0.203125q-0.484375 0.000000 -0.984375 -0.453125q-0.484375 -0.437500 -0.484375 -0.921875"/>
<path id="c_1a459ac34855d27ec37ccb0e66298d36" d="M9.281250 -0.000000l0.000000 -3.515625q12.500000 0.000000 12.500000 -3.171875l0.000000 -52.500000q-5.171875 2.500000 -13.093750 2.500000l0.000000 -3.515625q12.265625 0.000000 18.515625 -6.406250l1.406250 0.000000q0.343750 0.000000 0.656250 0.281250q0.328125 0.265625 0.328125 0.609375l0.000000 59.031250q0.000000 3.171875 12.500000 3.171875l0.000000 3.515625z"/>
</defs>
<g id="mathtext2">
<g style="fill: #000000" transform="translate(266.410000,55.198125)">
<use xlink:href="#c_bc03a93813e543a118c59fdafeacee8b" transform="translate(0.000000,-2.953125)scale(0.099960)"/>
<use xlink:href="#c_7bbc93c01755cdeb977d08bdfb9ce616" transform="translate(8.134723,-2.953125)scale(0.099960)"/>
<use xlink:href="#c_7d09e94cce4bdf71f2297f5bbc354b76" transform="translate(16.528464,-2.953125)scale(0.099960)"/>
<use xlink:href="#c_01bd98e0cf1b355b13e73042b8c9bdee" transform="translate(21.520651,-2.953125)scale(0.099960)"/>
<use xlink:href="#c_69dc50131244cbd363528a547fd15b91" transform="translate(24.476892,-2.953125)scale(0.099960)"/>
<use xlink:href="#c_7bbc93c01755cdeb977d08bdfb9ce616" transform="translate(31.870587,-2.953125)scale(0.099960)"/>
<use xlink:href="#c_1a459ac34855d27ec37ccb0e66298d36" transform="translate(40.264328,-2.953125)scale(0.099960)"/>
</g>
</g>
</g>
<g id="line2d118">
<path style="fill: none; stroke: #ff0000; stroke-width: 1.000000; stroke-linejoin: round; stroke-linecap: square;  opacity: 1.000000"  d="M230.410000 67.516250L250.570000 67.516250"/>
</g>
<g id="line2d119">
</g>
<g id="text17">
<defs>
<path id="c_4b4b135d81e9b78c16b841add313c4b1" d="M9.515625 -7.718750q2.343750 3.421875 6.296875 5.078125q3.968750 1.656250 8.500000 1.656250q5.812500 0.000000 8.250000 -4.953125q2.453125 -4.953125 2.453125 -11.250000q0.000000 -2.828125 -0.515625 -5.656250q-0.515625 -2.843750 -1.734375 -5.281250q-1.218750 -2.437500 -3.343750 -3.906250q-2.125000 -1.468750 -5.203125 -1.468750l-6.640625 0.000000q-0.875000 0.000000 -0.875000 -0.921875l0.000000 -0.875000q0.000000 -0.781250 0.875000 -0.781250l5.515625 -0.453125q3.515625 0.000000 5.828125 -2.625000q2.328125 -2.640625 3.406250 -6.421875q1.078125 -3.781250 1.078125 -7.203125q0.000000 -4.781250 -2.250000 -7.859375q-2.250000 -3.078125 -6.843750 -3.078125q-3.796875 0.000000 -7.265625 1.437500q-3.468750 1.437500 -5.515625 4.375000q0.187500 -0.046875 0.328125 -0.078125q0.156250 -0.031250 0.343750 -0.031250q2.250000 0.000000 3.765625 1.562500q1.515625 1.562500 1.515625 3.765625q0.000000 2.156250 -1.515625 3.718750q-1.515625 1.562500 -3.765625 1.562500q-2.187500 0.000000 -3.750000 -1.562500q-1.562500 -1.562500 -1.562500 -3.718750q0.000000 -4.296875 2.578125 -7.468750q2.593750 -3.171875 6.671875 -4.812500q4.078125 -1.640625 8.171875 -1.640625q3.031250 0.000000 6.390625 0.906250q3.375000 0.906250 6.109375 2.593750q2.734375 1.687500 4.468750 4.328125q1.734375 2.625000 1.734375 6.000000q0.000000 4.203125 -1.875000 7.765625q-1.875000 3.562500 -5.156250 6.156250q-3.265625 2.578125 -7.171875 3.843750q4.343750 0.828125 8.250000 3.281250q3.906250 2.437500 6.265625 6.250000q2.375000 3.796875 2.375000 8.203125q0.000000 5.515625 -3.031250 9.984375q-3.015625 4.468750 -7.953125 6.984375q-4.937500 2.515625 -10.406250 2.515625q-4.687500 0.000000 -9.406250 -1.796875q-4.703125 -1.781250 -7.703125 -5.343750q-3.000000 -3.562500 -3.000000 -8.546875q0.000000 -2.484375 1.656250 -4.140625q1.656250 -1.656250 4.156250 -1.656250q1.609375 0.000000 2.953125 0.750000q1.343750 0.750000 2.093750 2.125000q0.765625 1.359375 0.765625 2.921875q0.000000 2.453125 -1.718750 4.109375q-1.703125 1.656250 -4.093750 1.656250z"/>
</defs>
<g id="mathtext3">
<g style="fill: #000000" transform="translate(266.410000,74.556250)">
<use xlink:href="#c_bc03a93813e543a118c59fdafeacee8b" transform="translate(0.000000,-2.953125)scale(0.099960)"/>
<use xlink:href="#c_7bbc93c01755cdeb977d08bdfb9ce616" transform="translate(8.134723,-2.953125)scale(0.099960)"/>
<use xlink:href="#c_1a459ac34855d27ec37ccb0e66298d36" transform="translate(16.528464,-2.953125)scale(0.099960)"/>
<use xlink:href="#c_01bd98e0cf1b355b13e73042b8c9bdee" transform="translate(21.520651,-2.953125)scale(0.099960)"/>
<use xlink:href="#c_69dc50131244cbd363528a547fd15b91" transform="translate(24.476892,-2.953125)scale(0.099960)"/>
<use xlink:href="#c_7bbc93c01755cdeb977d08bdfb9ce616" transform="translate(31.870587,-2.953125)scale(0.099960)"/>
<use xlink:href="#c_4b4b135d81e9b78c16b841add313c4b1" transform="translate(40.264328,-2.953125)scale(0.099960)"/>
</g>
</g>
</g>
<g id="line2d120">
<path style="fill: none; stroke: #00bfbf; stroke-width: 1.000000; stroke-linejoin: round; stroke-linecap: square;  opacity: 1.000000"  d="M230.410000 86.874375L250.570000 86.874375"/>
</g>
<g id="line2d121">
</g>
<g id="text18">
<defs>
<path id="c_1210e7f4d85518601ea3049211d562d0" d="M4.984375 -0.000000l0.000000 -2.687500q0.000000 -0.250000 0.187500 -0.531250l15.531250 -17.187500q3.515625 -3.812500 5.703125 -6.390625q2.203125 -2.593750 4.343750 -5.968750q2.156250 -3.375000 3.406250 -6.859375q1.250000 -3.484375 1.250000 -7.390625q0.000000 -4.109375 -1.515625 -7.843750q-1.515625 -3.734375 -4.515625 -5.984375q-3.000000 -2.250000 -7.250000 -2.250000q-4.343750 0.000000 -7.812500 2.625000q-3.468750 2.609375 -4.890625 6.750000q0.390625 -0.093750 1.078125 -0.093750q2.250000 0.000000 3.828125 1.515625q1.593750 1.515625 1.593750 3.906250q0.000000 2.296875 -1.593750 3.890625q-1.578125 1.578125 -3.828125 1.578125q-2.343750 0.000000 -3.937500 -1.625000q-1.578125 -1.640625 -1.578125 -3.843750q0.000000 -3.765625 1.406250 -7.046875q1.421875 -3.296875 4.078125 -5.859375q2.671875 -2.578125 6.015625 -3.937500q3.343750 -1.375000 7.093750 -1.375000q5.718750 0.000000 10.640625 2.421875q4.937500 2.421875 7.812500 6.843750q2.890625 4.406250 2.890625 10.328125q0.000000 4.343750 -1.906250 8.250000q-1.906250 3.906250 -4.890625 7.109375q-2.968750 3.187500 -7.609375 7.250000q-4.640625 4.046875 -6.093750 5.406250l-11.328125 10.890625l9.609375 0.000000q7.078125 0.000000 11.843750 -0.109375q4.765625 -0.125000 5.046875 -0.375000q1.171875 -1.265625 2.406250 -9.234375l2.921875 0.000000l-2.828125 17.828125z"/>
</defs>
<g id="mathtext4">
<g style="fill: #000000" transform="translate(266.410000,93.914375)">
<use xlink:href="#c_bc03a93813e543a118c59fdafeacee8b" transform="translate(0.000000,-2.953125)scale(0.099960)"/>
<use xlink:href="#c_7bbc93c01755cdeb977d08bdfb9ce616" transform="translate(8.134723,-2.953125)scale(0.099960)"/>
<use xlink:href="#c_1210e7f4d85518601ea3049211d562d0" transform="translate(16.528464,-2.953125)scale(0.099960)"/>
<use xlink:href="#c_01bd98e0cf1b355b13e73042b8c9bdee" transform="translate(21.520651,-2.953125)scale(0.099960)"/>
<use xlink:href="#c_69dc50131244cbd363528a547fd15b91" transform="translate(24.476892,-2.953125)scale(0.099960)"/>
<use xlink:href="#c_7bbc93c01755cdeb977d08bdfb9ce616" transform="translate(31.870587,-2.953125)scale(0.099960)"/>
<use xlink:href="#c_1210e7f4d85518601ea3049211d562d0" transform="translate(40.264328,-2.953125)scale(0.099960)"/>
</g>
</g>
</g>
<g id="line2d122">
<path style="fill: none; stroke: #bf00bf; stroke-width: 1.000000; stroke-linejoin: round; stroke-linecap: square;  opacity: 1.000000"  d="M230.410000 106.232500L250.570000 106.232500"/>
</g>
<g id="line2d123">
</g>
<g id="text19">
<g id="mathtext5">
<g style="fill: #000000" transform="translate(266.410000,113.272500)">
<use xlink:href="#c_bc03a93813e543a118c59fdafeacee8b" transform="translate(0.000000,-2.953125)scale(0.099960)"/>
<use xlink:href="#c_7bbc93c01755cdeb977d08bdfb9ce616" transform="translate(8.134723,-2.953125)scale(0.099960)"/>
<use xlink:href="#c_1210e7f4d85518601ea3049211d562d0" transform="translate(16.528464,-2.953125)scale(0.099960)"/>
<use xlink:href="#c_01bd98e0cf1b355b13e73042b8c9bdee" transform="translate(21.520651,-2.953125)scale(0.099960)"/>
<use xlink:href="#c_69dc50131244cbd363528a547fd15b91" transform="translate(24.476892,-2.953125)scale(0.099960)"/>
<use xlink:href="#c_7bbc93c01755cdeb977d08bdfb9ce616" transform="translate(31.870587,-2.953125)scale(0.099960)"/>
<use xlink:href="#c_7d09e94cce4bdf71f2297f5bbc354b76" transform="translate(40.264328,-2.953125)scale(0.099960)"/>
</g>
</g>
</g>
</g>
</g>
</g>
</svg>
